<svg width="49" height="49" viewBox="0 0 49 49" fill="none" xmlns="http://www.w3.org/2000/svg">
<rect x="0.514465" y="0.415039" width="48.1365" height="48.1365" rx="15" fill="#FFC535"/>
<path d="M19.0828 11.915H29.0828C31.0719 11.915 32.9796 12.7052 34.3861 14.1117C35.7926 15.5183 36.5828 17.4259 36.5828 19.415V29.415C36.5828 31.4042 35.7926 33.3118 34.3861 34.7183C32.9796 36.1249 31.0719 36.915 29.0828 36.915H19.0828C17.0937 36.915 15.186 36.1249 13.7795 34.7183C12.373 33.3118 11.5828 31.4042 11.5828 29.415V19.415C11.5828 17.4259 12.373 15.5183 13.7795 14.1117C15.186 12.7052 17.0937 11.915 19.0828 11.915V11.915ZM19.0828 14.415C17.7567 14.415 16.485 14.9418 15.5473 15.8795C14.6096 16.8172 14.0828 18.089 14.0828 19.415V29.415C14.0828 30.7411 14.6096 32.0129 15.5473 32.9506C16.485 33.8883 17.7567 34.415 19.0828 34.415H29.0828C30.4089 34.415 31.6807 33.8883 32.6184 32.9506C33.556 32.0129 34.0828 30.7411 34.0828 29.415V19.415C34.0828 18.089 33.556 16.8172 32.6184 15.8795C31.6807 14.9418 30.4089 14.415 29.0828 14.415H19.0828ZM26.5828 23.165H30.3328C30.6643 23.165 30.9823 23.2967 31.2167 23.5312C31.4511 23.7656 31.5828 24.0835 31.5828 24.415C31.5828 24.7466 31.4511 25.0645 31.2167 25.2989C30.9823 25.5333 30.6643 25.665 30.3328 25.665H26.5828C26.2513 25.665 25.9334 25.5333 25.6989 25.2989C25.4645 25.0645 25.3328 24.7466 25.3328 24.415C25.3328 24.0835 25.4645 23.7656 25.6989 23.5312C25.9334 23.2967 26.2513 23.165 26.5828 23.165V23.165ZM24.0828 28.165H30.3328C30.6643 28.165 30.9823 28.2967 31.2167 28.5312C31.4511 28.7656 31.5828 29.0835 31.5828 29.415C31.5828 29.7466 31.4511 30.0645 31.2167 30.2989C30.9823 30.5333 30.6643 30.665 30.3328 30.665H24.0828C23.7513 30.665 23.4334 30.5333 23.1989 30.2989C22.9645 30.0645 22.8328 29.7466 22.8328 29.415C22.8328 29.0835 22.9645 28.7656 23.1989 28.5312C23.4334 28.2967 23.7513 28.165 24.0828 28.165V28.165ZM24.0828 18.165H30.3328C30.6643 18.165 30.9823 18.2967 31.2167 18.5312C31.4511 18.7656 31.5828 19.0835 31.5828 19.415C31.5828 19.7466 31.4511 20.0645 31.2167 20.2989C30.9823 20.5333 30.6643 20.665 30.3328 20.665H24.0828C23.7513 20.665 23.4334 20.5333 23.1989 20.2989C22.9645 20.0645 22.8328 19.7466 22.8328 19.415C22.8328 19.0835 22.9645 18.7656 23.1989 18.5312C23.4334 18.2967 23.7513 18.165 24.0828 18.165V18.165ZM18.8678 24.7188L21.5203 22.065C21.6365 21.949 21.7743 21.8569 21.926 21.7942C22.0777 21.7314 22.2403 21.6991 22.4045 21.6992C22.5687 21.6992 22.7313 21.7316 22.8829 21.7945C23.0346 21.8574 23.1724 21.9495 23.2884 22.0657C23.4045 22.1818 23.4965 22.3197 23.5593 22.4714C23.6221 22.6231 23.6544 22.7857 23.6543 22.9499C23.6543 23.114 23.6219 23.2766 23.559 23.4283C23.4961 23.5799 23.404 23.7177 23.2878 23.8338L19.7528 27.3688C19.6367 27.485 19.4989 27.5772 19.3471 27.6401C19.1954 27.703 19.0327 27.7354 18.8684 27.7354C18.7042 27.7354 18.5415 27.703 18.3898 27.6401C18.238 27.5772 18.1002 27.485 17.9841 27.3688L16.2166 25.6025C15.9889 25.3668 15.8629 25.051 15.8657 24.7233C15.8686 24.3955 16 24.082 16.2318 23.8503C16.4636 23.6185 16.7771 23.487 17.1048 23.4842C17.4326 23.4813 17.7483 23.6073 17.9841 23.835L18.8678 24.7188V24.7188Z" fill="#5B5B5B"/>
</svg>
