<svg width="49" height="49" viewBox="0 0 49 49" fill="none" xmlns="http://www.w3.org/2000/svg">
<path d="M19.2067 11.5H29.2067C31.1959 11.5 33.1035 12.2902 34.51 13.6967C35.9166 15.1032 36.7067 17.0109 36.7067 19V29C36.7067 30.9891 35.9166 32.8968 34.51 34.3033C33.1035 35.7098 31.1959 36.5 29.2067 36.5H19.2067C17.2176 36.5 15.3099 35.7098 13.9034 34.3033C12.4969 32.8968 11.7067 30.9891 11.7067 29V19C11.7067 17.0109 12.4969 15.1032 13.9034 13.6967C15.3099 12.2902 17.2176 11.5 19.2067 11.5V11.5ZM19.2067 14C17.8806 14 16.6089 14.5268 15.6712 15.4645C14.7335 16.4021 14.2067 17.6739 14.2067 19V29C14.2067 30.3261 14.7335 31.5979 15.6712 32.5355C16.6089 33.4732 17.8806 34 19.2067 34H29.2067C30.5328 34 31.8046 33.4732 32.7423 32.5355C33.6799 31.5979 34.2067 30.3261 34.2067 29V19C34.2067 17.6739 33.6799 16.4021 32.7423 15.4645C31.8046 14.5268 30.5328 14 29.2067 14H19.2067ZM26.7067 22.75H30.4567C30.7882 22.75 31.1062 22.8817 31.3406 23.1161C31.575 23.3505 31.7067 23.6685 31.7067 24C31.7067 24.3315 31.575 24.6495 31.3406 24.8839C31.1062 25.1183 30.7882 25.25 30.4567 25.25H26.7067C26.3752 25.25 26.0573 25.1183 25.8228 24.8839C25.5884 24.6495 25.4567 24.3315 25.4567 24C25.4567 23.6685 25.5884 23.3505 25.8228 23.1161C26.0573 22.8817 26.3752 22.75 26.7067 22.75ZM24.2067 27.75H30.4567C30.7882 27.75 31.1062 27.8817 31.3406 28.1161C31.575 28.3505 31.7067 28.6685 31.7067 29C31.7067 29.3315 31.575 29.6495 31.3406 29.8839C31.1062 30.1183 30.7882 30.25 30.4567 30.25H24.2067C23.8752 30.25 23.5573 30.1183 23.3228 29.8839C23.0884 29.6495 22.9567 29.3315 22.9567 29C22.9567 28.6685 23.0884 28.3505 23.3228 28.1161C23.5573 27.8817 23.8752 27.75 24.2067 27.75ZM24.2067 17.75H30.4567C30.7882 17.75 31.1062 17.8817 31.3406 18.1161C31.575 18.3505 31.7067 18.6685 31.7067 19C31.7067 19.3315 31.575 19.6495 31.3406 19.8839C31.1062 20.1183 30.7882 20.25 30.4567 20.25H24.2067C23.8752 20.25 23.5573 20.1183 23.3228 19.8839C23.0884 19.6495 22.9567 19.3315 22.9567 19C22.9567 18.6685 23.0884 18.3505 23.3228 18.1161C23.5573 17.8817 23.8752 17.75 24.2067 17.75ZM18.9917 24.3038L21.6442 21.65C21.7604 21.5339 21.8982 21.4419 22.0499 21.3791C22.2016 21.3163 22.3642 21.2841 22.5284 21.2841C22.6926 21.2842 22.8552 21.3166 23.0068 21.3795C23.1585 21.4423 23.2963 21.5345 23.4124 21.6506C23.5284 21.7668 23.6205 21.9046 23.6832 22.0563C23.746 22.208 23.7783 22.3706 23.7782 22.5348C23.7782 22.699 23.7458 22.8616 23.6829 23.0132C23.62 23.1649 23.5279 23.3027 23.4117 23.4187L19.8767 26.9537C19.7606 27.07 19.6228 27.1622 19.471 27.2251C19.3193 27.288 19.1566 27.3204 18.9924 27.3204C18.8281 27.3204 18.6654 27.288 18.5137 27.2251C18.3619 27.1622 18.2241 27.07 18.108 26.9537L16.3405 25.1875C16.1128 24.9517 15.9868 24.636 15.9896 24.3082C15.9925 23.9805 16.1239 23.667 16.3557 23.4352C16.5875 23.2035 16.901 23.072 17.2287 23.0692C17.5565 23.0663 17.8722 23.1923 18.108 23.42L18.9917 24.3038Z" fill="#5B5B5B"/>
</svg>
